<svg width="1543" height="320" xmlns="http://www.w3.org/2000/svg">

 <g>
  <title>background</title>
  <rect fill="none" id="canvas_background" height="322" width="1545" y="-1" x="-1"/>
 </g>
 <g>
  <title>Layer 1</title>
  <g stroke="null" transform="matrix(1.1450567312623632,0,0,1.1447856405386507,7.216189444578888,7.216690915813759) " id="SvgjsG1072">
   <svg y="-14.033909" x="-6.20437" stroke="null" id="svg_1" height="288" width="288" viewBox="0 0 32 32">
    <polyline stroke="#ffffff" id="svg_2" points="5 27 5 23 9 23" stroke-width="2" stroke-miterlimit="10" stroke-linejoin="round" stroke-linecap="round" fill="none"/>
    <path stroke="#ffffff" id="svg_3" class="colorStroke000 svgStroke" d="m28.652,12.999c0.228,0.963 0.348,1.968 0.348,3.001c0,7.18 -5.82,13 -13,13c-4.602,0 -8.645,-2.391 -10.955,-5.998" stroke-width="2" stroke-miterlimit="10" stroke-linejoin="round" stroke-linecap="round" fill="none"/>
    <polyline stroke="#ffffff" id="svg_4" points="27 5 27 9 23 9" stroke-width="2" stroke-miterlimit="10" stroke-linejoin="round" stroke-linecap="round" fill="none"/>
    <path stroke="#ffffff" id="svg_5" class="colorStroke000 svgStroke" d="m3.349,19.005c-0.228,-0.965 -0.349,-1.971 -0.349,-3.005c0,-7.18 5.82,-13 13,-13c4.603,0 8.647,2.392 10.957,6.001" stroke-width="2" stroke-miterlimit="10" stroke-linejoin="round" stroke-linecap="round" fill="none"/>
    <path stroke="#ffffff" id="svg_6" class="colorStroke000 svgStroke" d="m16,23c3.314,0 6,-2.605 6,-5.818c0,-5.121 -6,-10.182 -6,-10.182s-6,5.061 -6,10.182c0,3.213 2.686,5.818 6,5.818z" stroke-width="2" stroke-miterlimit="10" stroke-linejoin="round" stroke-linecap="round" fill="none"/>
    <path stroke="#ffffff" id="svg_7" class="colorStroke000 svgStroke" d="m17.388,14.998c0.375,0.759 0.612,1.51 0.612,2.184c0,0.294 -0.077,0.572 -0.214,0.819" stroke-width="2" stroke-miterlimit="10" stroke-linejoin="round" stroke-linecap="round" fill="none"/>
   </svg>
  </g>
  <text font-weight="bold" xml:space="preserve" text-anchor="start" font-family="Oswald, sans-serif" font-size="190" id="svg_8" y="223.453125" x="343" stroke-width="0" stroke="#000" fill="#ffffff">BUSSEboard</text>
 </g>
</svg>