<svg width="600" height="123" xmlns="http://www.w3.org/2000/svg" xmlns:xlink="http://www.w3.org/1999/xlink" overflow="hidden"><defs><clipPath id="clip0"><path d="M329 298 929 298 929 421 329 421Z" fill-rule="evenodd" clip-rule="evenodd"/></clipPath><clipPath id="clip1"><path d="M330 298 928 298 928 420 330 420Z" fill-rule="evenodd" clip-rule="evenodd"/></clipPath><clipPath id="clip2"><path d="M330 298 928 298 928 420 330 420Z" fill-rule="evenodd" clip-rule="evenodd"/></clipPath></defs><g clip-path="url(#clip0)" transform="translate(-329 -298)"><g clip-path="url(#clip1)"><g clip-path="url(#clip2)"><path d="M63.2954 57.4307C63.2954 66.6926 55.7975 74.2005 46.5376 74.2057 37.283 74.2108 29.769 66.7131 29.7637 57.4512 29.7583 48.1945 37.2616 40.6866 46.5215 40.6814 46.5269 40.6814 46.5322 40.6814 46.5376 40.6814" stroke="#000000" stroke-width="5.96914" stroke-linecap="round" stroke-linejoin="round" fill="none" transform="matrix(1 0 -0 1.22175 322.53 297.832)"/><path d="M63.2954 46.338 56.874 56.6153 69.7008 56.6153Z" stroke="#000000" stroke-width="5.96914" stroke-linecap="round" stroke-linejoin="round" fill="none" transform="matrix(1 0 -0 1.22175 322.53 297.832)"/><path d="M24.0974 82.7701C9.93169 68.6157 9.92633 45.656 24.0813 31.4914 24.0867 31.4862 24.092 31.4811 24.0974 31.476L49.7402 5.82896 75.3885 31.476C89.5542 45.6354 89.5595 68.5952 75.4045 82.7598 75.3992 82.7649 75.3938 82.7701 75.3885 82.7701 61.2335 96.9346 38.2738 96.9398 24.1081 82.7854 24.1027 82.7803 24.0974 82.7752 24.0974 82.7701Z" stroke="#000000" stroke-width="5.96914" stroke-linecap="round" stroke-linejoin="round" fill="none" transform="matrix(1 0 -0 1.22175 322.53 297.832)"/><path d="M5.91264-57.6911 28.9634-57.6911C33.5317-57.6911 36.9379-57.4983 39.182-57.1127 41.4206-56.7378 43.429-55.9451 45.2017-54.7348 46.9691-53.5351 48.4419-51.9284 49.6148-49.9147 50.7984-47.9117 51.3928-45.6623 51.3928-43.1666 51.3928-40.4673 50.6645-37.9876 49.2077-35.7329 47.751-33.4728 45.7801-31.7804 43.2951-30.6558 46.8084-29.6275 49.5077-27.8762 51.3928-25.4072 53.278-22.949 54.2206-20.0569 54.2206-16.7311 54.2206-14.1014 53.6047-11.5468 52.3783-9.06176 51.1626-6.58745 49.4969-4.61122 47.3868-3.1277 45.2874-1.63883 42.6846-0.728369 39.589-0.385607 37.6449-0.182092 32.9587-0.0535565 25.5358 0L5.91264 0ZM17.5451-48.0938 17.5451-34.7475 25.193-34.7475C29.7185-34.7475 32.5409-34.8117 33.6549-34.9403 35.6365-35.1813 37.2004-35.8722 38.3465-37.0183 39.4872-38.159 40.0603-39.6586 40.0603-41.517 40.0603-43.3005 39.5676-44.7518 38.5821-45.8658 37.5967-46.9798 36.1292-47.6546 34.1905-47.901 33.0337-48.0295 29.7185-48.0938 24.2504-48.0938ZM17.5451-25.1501 17.5451-9.72587 28.3421-9.72587C32.5249-9.72587 35.1813-9.83833 36.3113-10.0686 38.0519-10.3793 39.4658-11.1451 40.553-12.3608 41.6348-13.5873 42.1811-15.2208 42.1811-17.2666 42.1811-19.0072 41.758-20.48 40.9172-21.6797 40.0871-22.8901 38.8713-23.7684 37.2753-24.3147 35.6901-24.8717 32.2464-25.1501 26.9496-25.1501Z" transform="matrix(1 0 -0 1.1699 428.312 392.863)"/><path d="M5.78411-57.6911 17.438-57.6911 17.438-26.4355C17.438-21.4762 17.5773-18.2628 17.8665-16.7953 18.3645-14.4388 19.5481-12.5429 21.4226-11.1183 23.3078-9.68838 25.8678-8.97607 29.1133-8.97607 32.4231-8.97607 34.9189-9.64553 36.5898-10.9898 38.2715-12.3448 39.2891-14.0104 39.6318-15.9813 39.9746-17.9521 40.146-21.2137 40.146-25.7714L40.146-57.6911 51.7785-57.6911 51.7785-27.3781C51.7785-20.4639 51.4625-15.5742 50.8359-12.7036 50.2039-9.84369 49.0417-7.43365 47.344-5.46277 45.6569-3.5026 43.3915-1.93875 40.553-0.771214 37.7252 0.396318 34.0298 0.98544 29.4775 0.98544 23.9612 0.98544 19.7784 0.348117 16.9239-0.921172 14.08-2.19046 11.8306-3.84 10.1757-5.8698 8.53155-7.9103 7.44436-10.0472 6.9195-12.2752 6.159-15.585 5.78411-20.4639 5.78411-26.9068Z" transform="matrix(1 0 -0 1.1699 486.516 392.863)"/><path d="M2.91348-18.7662 14.246-19.8802C14.9316-16.067 16.3133-13.266 18.402-11.4825 20.4854-9.69373 23.2971-8.80469 26.8425-8.80469 30.5808-8.80469 33.4032-9.59733 35.3045-11.1826 37.2164-12.7786 38.1751-14.6424 38.1751-16.7739 38.1751-18.1289 37.7734-19.2857 36.9754-20.2444 36.1721-21.1977 34.7743-22.0332 32.7766-22.7508 31.4163-23.2221 28.31-24.0576 23.4578-25.2573 17.2131-26.8104 12.8321-28.717 10.3043-30.9771 6.75883-34.1476 4.99147-38.0144 4.99147-42.5882 4.99147-45.5123 5.82695-48.2544 7.49791-50.8144 9.16888-53.3691 11.5682-55.3185 14.6959-56.6628 17.8343-58.0017 21.6208-58.6765 26.0499-58.6765 33.2907-58.6765 38.7374-57.0805 42.3953-53.8993 46.064-50.7287 47.9866-46.4924 48.158-41.1957L36.5256-40.6815C36.0221-43.6486 34.951-45.7855 33.3122-47.0869 31.668-48.383 29.2097-49.0364 25.9428-49.0364 22.558-49.0364 19.9016-48.3348 17.9736-46.9369 16.7418-46.0479 16.1312-44.8589 16.1312-43.3594 16.1312-41.999 16.7096-40.8369 17.8665-39.8675 19.3339-38.625 22.9008-37.3289 28.5563-35.99 34.2226-34.6618 38.4161-33.28 41.1314-31.8554 43.8574-30.4255 45.9836-28.4707 47.5154-25.9856 49.0578-23.5113 49.829-20.4479 49.829-16.7953 49.829-13.4962 48.9078-10.4007 47.0655-7.51934 45.2231-4.63264 42.6203-2.48502 39.2676-1.07113 35.9097 0.326694 31.7269 1.02829 26.714 1.02829 19.4303 1.02829 13.8283-0.653389 9.91867-4.02745 6.00369-7.39616 3.66862-12.3073 2.91348-18.7662Z" transform="matrix(1 0 -0 1.1699 544.72 392.863)"/><path d="M2.91348-18.7662 14.246-19.8802C14.9316-16.067 16.3133-13.266 18.402-11.4825 20.4854-9.69373 23.2971-8.80469 26.8425-8.80469 30.5808-8.80469 33.4032-9.59733 35.3045-11.1826 37.2164-12.7786 38.1751-14.6424 38.1751-16.7739 38.1751-18.1289 37.7734-19.2857 36.9754-20.2444 36.1721-21.1977 34.7743-22.0332 32.7766-22.7508 31.4163-23.2221 28.31-24.0576 23.4578-25.2573 17.2131-26.8104 12.8321-28.717 10.3043-30.9771 6.75883-34.1476 4.99147-38.0144 4.99147-42.5882 4.99147-45.5123 5.82695-48.2544 7.49791-50.8144 9.16888-53.3691 11.5682-55.3185 14.6959-56.6628 17.8343-58.0017 21.6208-58.6765 26.0499-58.6765 33.2907-58.6765 38.7374-57.0805 42.3953-53.8993 46.064-50.7287 47.9866-46.4924 48.158-41.1957L36.5256-40.6815C36.0221-43.6486 34.951-45.7855 33.3122-47.0869 31.668-48.383 29.2097-49.0364 25.9428-49.0364 22.558-49.0364 19.9016-48.3348 17.9736-46.9369 16.7418-46.0479 16.1312-44.8589 16.1312-43.3594 16.1312-41.999 16.7096-40.8369 17.8665-39.8675 19.3339-38.625 22.9008-37.3289 28.5563-35.99 34.2226-34.6618 38.4161-33.28 41.1314-31.8554 43.8574-30.4255 45.9836-28.4707 47.5154-25.9856 49.0578-23.5113 49.829-20.4479 49.829-16.7953 49.829-13.4962 48.9078-10.4007 47.0655-7.51934 45.2231-4.63264 42.6203-2.48502 39.2676-1.07113 35.9097 0.326694 31.7269 1.02829 26.714 1.02829 19.4303 1.02829 13.8283-0.653389 9.91867-4.02745 6.00369-7.39616 3.66862-12.3073 2.91348-18.7662Z" transform="matrix(1 0 -0 1.1699 598.477 392.863)"/><path d="M5.8698 0 5.8698-57.6911 48.6293-57.6911 48.6293-47.9224 17.5023-47.9224 17.5023-35.1331 46.4656-35.1331 46.4656-25.4286 17.5023-25.4286 17.5023-9.72587 49.7433-9.72587 49.7433 0Z" transform="matrix(1 0 -0 1.1699 652.234 392.863)"/><path d="M5.31281 0 5.31281-57.6911 16.3669-57.6911 16.3669-36.9112C19.7784-40.794 23.8219-42.7381 28.4921-42.7381 33.5746-42.7381 37.7788-40.8958 41.11-37.2111 44.4519-33.5264 46.1229-28.235 46.1229-21.3369 46.1229-14.1925 44.4198-8.69758 41.0243-4.84151 37.6235-0.98544 33.4943 0.942595 28.642 0.942595 26.2534 0.942595 23.8969 0.348117 21.5726-0.835482 19.2589-2.03515 17.2559-3.80251 15.5742-6.14829L15.5742 0ZM16.2812-21.8082C16.2812-17.4809 16.9667-14.2728 18.3378-12.1895 20.2497-9.25992 22.7937-7.79783 25.9642-7.79783 28.4064-7.79783 30.4844-8.83683 32.1982-10.9255 33.9227-13.0089 34.7903-16.2919 34.7903-20.7799 34.7903-25.5465 33.9174-28.9901 32.1768-31.1056 30.4469-33.2158 28.235-34.2762 25.5358-34.2762 22.8901-34.2762 20.6835-33.2479 18.9162-31.1913 17.1595-29.1348 16.2812-26.007 16.2812-21.8082Z" transform="matrix(1 0 -0 1.1699 705.991 392.863)"/><path d="M3.23481-21.4869C3.23481-25.1555 4.13456-28.7063 5.93406-32.1339 7.74427-35.5722 10.3096-38.2019 13.6248-40.0174 16.9506-41.8276 20.6568-42.7381 24.7431-42.7381 31.0681-42.7381 36.2524-40.6815 40.2959-36.5684 44.3341-32.466 46.3585-27.2817 46.3585-21.0156 46.3585-14.6852 44.3127-9.44737 40.2317-5.29139 36.1614-1.1354 31.0253 0.942595 24.8288 0.942595 20.9995 0.942595 17.3416 0.0749791 13.8604-1.64954 10.39-3.37406 7.74427-5.91264 5.93406-9.25457 4.13456-12.6072 3.23481-16.6882 3.23481-21.4869ZM14.5674-20.887C14.5674-16.7418 15.5421-13.5712 17.5023-11.3754 19.4732-9.17423 21.8993-8.07632 24.786-8.07632 27.6673-8.07632 30.0881-9.17423 32.0482-11.3754 34.003-13.5712 34.9831-16.7739 34.9831-20.9727 34.9831-25.0698 34.003-28.2189 32.0482-30.4201 30.0881-32.6159 27.6673-33.7192 24.786-33.7192 21.8993-33.7192 19.4732-32.6159 17.5023-30.4201 15.5421-28.2189 14.5674-25.043 14.5674-20.887Z" transform="matrix(1 0 -0 1.1699 755.222 392.863)"/><path d="M14.0532-29.0491 4.00603-30.8486C5.13072-34.8867 7.07482-37.8805 9.83298-39.8246 12.5858-41.7634 16.6775-42.7381 22.1081-42.7381 27.046-42.7381 30.7254-42.149 33.1408-40.9815 35.5508-39.8086 37.2432-38.3251 38.2179-36.5256 39.2034-34.7368 39.6961-31.4484 39.6961-26.6497L39.589-13.7319C39.589-10.0579 39.7657-7.35331 40.1245-5.61272 40.478-3.86678 41.1368-1.99766 42.0954 0L31.1699 0C30.8807-0.728369 30.5272-1.81021 30.0988-3.25624 29.9113-3.90963 29.7828-4.34879 29.7132-4.56302 27.828-2.72067 25.8035-1.33891 23.6506-0.428452 21.4922 0.482008 19.2 0.942595 16.7739 0.942595 12.4572 0.942595 9.06176-0.219581 6.57674-2.54929 4.10243-4.88971 2.87063-7.84603 2.87063-11.4183 2.87063-13.7747 3.43297-15.8742 4.56302-17.7165 5.6877-19.5696 7.26762-20.9942 9.29741-21.9796 11.3379-22.965 14.2728-23.8219 18.1021-24.5503 23.2703-25.5197 26.8479-26.4248 28.8348-27.271L28.8348-28.3635C28.8348-30.4897 28.31-32.0054 27.271-32.9051 26.2266-33.8156 24.2504-34.2762 21.3369-34.2762 19.366-34.2762 17.829-33.8906 16.7311-33.1194 15.6278-32.3481 14.7388-30.9878 14.0532-29.0491ZM28.8348-20.073C27.4209-19.6017 25.1769-19.034 22.1081-18.3806 19.034-17.7219 17.031-17.0792 16.0884-16.4526 14.6424-15.4243 13.9247-14.1229 13.9247-12.5536 13.9247-11.0112 14.5031-9.67231 15.6599-8.54762 16.8167-7.41758 18.2842-6.85524 20.073-6.85524 22.0546-6.85524 23.9558-7.50327 25.7714-8.80469 27.1103-9.80085 27.9886-11.0219 28.4064-12.468 28.6902-13.4106 28.8348-15.2101 28.8348-17.8665Z" transform="matrix(1 0 -0 1.1699 804.453 392.863)"/><path d="M16.3669 0 5.31281 0 5.31281-41.7955 15.5742-41.7955 15.5742-35.84C17.3309-38.6517 18.9055-40.4994 20.3086-41.3885 21.7225-42.2882 23.3185-42.7381 25.1073-42.7381 27.6191-42.7381 30.0452-42.0419 32.391-40.6601L28.9634-30.9985C27.105-32.2089 25.3697-32.8194 23.7577-32.8194 22.2152-32.8194 20.8978-32.391 19.8159-31.5341 18.7448-30.6879 17.8986-29.1455 17.288-26.9068 16.6721-24.6788 16.3669-20.0141 16.3669-12.9178Z" transform="matrix(1 0 -0 1.1699 849.277 392.863)"/><path d="M44.1092 0 33.8477 0 33.8477-6.14829C32.1339-3.74896 30.1095-1.96017 27.7851-0.792637 25.4715 0.364184 23.1364 0.942595 20.7799 0.942595 15.9813 0.942595 11.8681-0.990795 8.44051-4.86293 5.01289-8.72971 3.29908-14.1282 3.29908-21.0584 3.29908-28.1386 4.95934-33.5264 8.29055-37.2111 11.6325-40.8958 15.842-42.7381 20.9299-42.7381 25.6-42.7381 29.6382-40.794 33.0551-36.9112L33.0551-57.6911 44.1092-57.6911ZM14.5888-21.8082C14.5888-17.3362 15.2101-14.1068 16.4526-12.1252 18.236-9.2385 20.7264-7.79783 23.9291-7.79783 26.4676-7.79783 28.6313-8.87432 30.4201-11.0326 32.2035-13.2017 33.0979-16.4365 33.0979-20.7371 33.0979-25.5358 32.225-28.9901 30.4844-31.1056 28.7545-33.2158 26.5426-34.2762 23.8434-34.2762 21.2137-34.2762 19.0126-33.2318 17.2452-31.1485 15.4725-29.0598 14.5888-25.9481 14.5888-21.8082Z" transform="matrix(1 0 -0 1.1699 880.641 392.863)"/></g></g></g></svg>