<svg xmlns="http://www.w3.org/2000/svg" enable-background="new 0 0 32 32" viewBox="0 0 32 32"><polyline fill="none" stroke="white" stroke-linecap="round" stroke-linejoin="round" stroke-miterlimit="10" stroke-width="2" points="5 27 5 23 9 23"/><path fill="none" stroke="white" stroke-linecap="round" stroke-linejoin="round" stroke-miterlimit="10" stroke-width="2" d="
	M28.652,12.999C28.88,13.962,29,14.967,29,16c0,7.18-5.82,13-13,13c-4.602,0-8.645-2.391-10.955-5.998"/><polyline fill="none" stroke="white" stroke-linecap="round" stroke-linejoin="round" stroke-miterlimit="10" stroke-width="2" points="27 5 27 9 23 9"/><path fill="none" stroke="white" stroke-linecap="round" stroke-linejoin="round" stroke-miterlimit="10" stroke-width="2" d="
	M3.349,19.005C3.121,18.04,3,17.034,3,16C3,8.82,8.82,3,16,3c4.603,0,8.647,2.392,10.957,6.001"/><path fill="none" stroke="white" stroke-linecap="round" stroke-linejoin="round" stroke-miterlimit="10" stroke-width="2" d="
	M16,23c3.314,0,6-2.605,6-5.818C22,12.061,16,7,16,7s-6,5.061-6,10.182C10,20.395,12.686,23,16,23z"/><path fill="none" stroke="white" stroke-linecap="round" stroke-linejoin="round" stroke-miterlimit="10" stroke-width="2" d="
	M17.388,14.998C17.763,15.757,18,16.508,18,17.182c0,0.294-0.077,0.572-0.214,0.819"/></svg>