<svg width="1003" height="270" xmlns="http://www.w3.org/2000/svg" xmlns:xlink="http://www.w3.org/1999/xlink" overflow="hidden"><defs><clipPath id="clip0"><path d="M270 76 1273 76 1273 346 270 346Z" fill-rule="evenodd" clip-rule="evenodd"/></clipPath><clipPath id="clip1"><path d="M270 110 435 110 435 275 270 275Z" fill-rule="evenodd" clip-rule="evenodd"/></clipPath><clipPath id="clip2"><path d="M270 110 435 110 435 275 270 275Z" fill-rule="evenodd" clip-rule="evenodd"/></clipPath><clipPath id="clip3"><path d="M270 110 435 110 435 275 270 275Z" fill-rule="evenodd" clip-rule="evenodd"/></clipPath><clipPath id="clip4"><path d="M270 110 435 110 435 275 270 275Z" fill-rule="evenodd" clip-rule="evenodd"/></clipPath></defs><g clip-path="url(#clip0)" transform="translate(-270 -76)"><text fill="#FFFFFF" font-family="Aharoni,Aharoni_MSFontService,sans-serif" font-weight="700" font-size="128" transform="translate(444.632 229)">BUSSEboard</text><g clip-path="url(#clip1)"><g clip-path="url(#clip2)"><g clip-path="url(#clip3)"><g clip-path="url(#clip4)"><path d="M295.781 249.219 295.781 228.594 316.406 228.594" stroke="#FFFFFF" stroke-width="10.3125" stroke-linecap="round" stroke-linejoin="round" stroke-miterlimit="10" fill="none"/><path d="M417.737 177.026C418.912 181.992 419.531 187.174 419.531 192.5 419.531 229.522 389.522 259.531 352.5 259.531 328.771 259.531 307.924 247.203 296.013 228.604" stroke="#FFFFFF" stroke-width="10.3125" stroke-linecap="round" stroke-linejoin="round" stroke-miterlimit="10" fill="none"/><path d="M409.219 135.781 409.219 156.406 388.594 156.406" stroke="#FFFFFF" stroke-width="10.3125" stroke-linecap="round" stroke-linejoin="round" stroke-miterlimit="10" fill="none"/><path d="M287.268 207.995C286.093 203.019 285.469 197.832 285.469 192.5 285.469 155.478 315.478 125.469 352.5 125.469 376.234 125.469 397.086 137.803 408.997 156.411" stroke="#FFFFFF" stroke-width="10.3125" stroke-linecap="round" stroke-linejoin="round" stroke-miterlimit="10" fill="none"/><path d="M352.5 228.594C369.588 228.594 383.438 215.162 383.438 198.595 383.438 172.19 352.5 146.094 352.5 146.094 352.5 146.094 321.563 172.19 321.563 198.595 321.563 215.162 335.412 228.594 352.5 228.594Z" stroke="#FFFFFF" stroke-width="10.3125" stroke-linecap="round" stroke-linejoin="round" stroke-miterlimit="10" fill="none"/><path d="M359.657 187.333C361.59 191.247 362.813 195.119 362.813 198.595 362.813 200.111 362.415 201.544 361.709 202.818" stroke="#FFFFFF" stroke-width="10.3125" stroke-linecap="round" stroke-linejoin="round" stroke-miterlimit="10" fill="none"/></g></g></g></g></g></svg>