<svg width="1188" height="246" xmlns="http://www.w3.org/2000/svg" xmlns:xlink="http://www.w3.org/1999/xlink" overflow="hidden"><defs><clipPath id="clip0"><path d="M46 388 1234 388 1234 634 46 634Z" fill-rule="evenodd" clip-rule="evenodd"/></clipPath><clipPath id="clip1"><path d="M46 389 1233 389 1233 633 46 633Z" fill-rule="evenodd" clip-rule="evenodd"/></clipPath><clipPath id="clip2"><path d="M46 389 1233 389 1233 633 46 633Z" fill-rule="evenodd" clip-rule="evenodd"/></clipPath><clipPath id="clip3"><path d="M46 377 1233 377 1233 701 46 701Z" fill-rule="evenodd" clip-rule="evenodd"/></clipPath><clipPath id="clip4"><path d="M46 377 1233 377 1233 701 46 701Z" fill-rule="evenodd" clip-rule="evenodd"/></clipPath><clipPath id="clip5"><path d="M47 419 231 419 231 603 47 603Z" fill-rule="evenodd" clip-rule="evenodd"/></clipPath><clipPath id="clip6"><path d="M47 419 231 419 231 603 47 603Z" fill-rule="evenodd" clip-rule="evenodd"/></clipPath><clipPath id="clip7"><path d="M47 419 231 419 231 603 47 603Z" fill-rule="evenodd" clip-rule="evenodd"/></clipPath><clipPath id="clip8"><path d="M47 419 231 419 231 603 47 603Z" fill-rule="evenodd" clip-rule="evenodd"/></clipPath></defs><g clip-path="url(#clip0)" transform="translate(-46 -388)"><g clip-path="url(#clip1)"><g clip-path="url(#clip2)"><g clip-path="url(#clip3)"><g clip-path="url(#clip4)"><text fill="#FFFFFF" font-family="Aharoni,Aharoni_MSFontService,sans-serif" font-weight="700" font-size="153" transform="matrix(1 0 0 0.997056 240.738 561)">BUSSEboard</text><g clip-path="url(#clip5)"><g clip-path="url(#clip6)"><g clip-path="url(#clip7)"><g clip-path="url(#clip8)"><path d="M161.274 301.36 161.274 278.428 184.206 278.428" stroke="#FFFFFF" stroke-width="11.4661" stroke-linecap="round" stroke-linejoin="round" stroke-miterlimit="10" fill="none" transform="matrix(1.00295 0 -0 1 -86 272.938)"/><path d="M296.872 221.091C298.18 226.612 298.868 232.374 298.868 238.296 298.868 279.46 265.501 312.826 224.338 312.826 197.954 312.826 174.775 299.119 161.532 278.44" stroke="#FFFFFF" stroke-width="11.4661" stroke-linecap="round" stroke-linejoin="round" stroke-miterlimit="10" fill="none" transform="matrix(1.00295 0 -0 1 -86 272.938)"/><path d="M287.401 175.233 287.401 198.165 264.469 198.165" stroke="#FFFFFF" stroke-width="11.4661" stroke-linecap="round" stroke-linejoin="round" stroke-miterlimit="10" fill="none" transform="matrix(1.00295 0 -0 1 -86 272.938)"/><path d="M151.809 255.525C150.502 249.992 149.808 244.224 149.808 238.296 149.808 197.133 183.174 163.766 224.338 163.766 250.727 163.766 273.911 177.48 287.155 198.171" stroke="#FFFFFF" stroke-width="11.4661" stroke-linecap="round" stroke-linejoin="round" stroke-miterlimit="10" fill="none" transform="matrix(1.00295 0 -0 1 -86 272.938)"/><path d="M224.338 278.428C243.337 278.428 258.736 263.493 258.736 245.072 258.736 215.714 224.338 186.699 224.338 186.699 224.338 186.699 189.939 215.714 189.939 245.072 189.939 263.493 205.338 278.428 224.338 278.428Z" stroke="#FFFFFF" stroke-width="11.4661" stroke-linecap="round" stroke-linejoin="round" stroke-miterlimit="10" fill="none" transform="matrix(1.00295 0 -0 1 -86 272.938)"/><path d="M232.295 232.551C234.445 236.904 235.804 241.209 235.804 245.072 235.804 246.758 235.362 248.352 234.577 249.769" stroke="#FFFFFF" stroke-width="11.4661" stroke-linecap="round" stroke-linejoin="round" stroke-miterlimit="10" fill="none" transform="matrix(1.00295 0 -0 1 -86 272.938)"/></g></g></g></g></g></g></g></g></g></svg>