<svg width="1043" height="270" xmlns="http://www.w3.org/2000/svg" xmlns:xlink="http://www.w3.org/1999/xlink" overflow="hidden"><defs><clipPath id="clip0"><path d="M215 234 1258 234 1258 504 215 504Z" fill-rule="evenodd" clip-rule="evenodd"/></clipPath><clipPath id="clip1"><path d="M216 268 374 268 374 433 216 433Z" fill-rule="evenodd" clip-rule="evenodd"/></clipPath><clipPath id="clip2"><path d="M216 268 374 268 374 433 216 433Z" fill-rule="evenodd" clip-rule="evenodd"/></clipPath><clipPath id="clip3"><path d="M216 268 374 268 374 433 216 433Z" fill-rule="evenodd" clip-rule="evenodd"/></clipPath></defs><g clip-path="url(#clip0)" transform="translate(-215 -234)"><g clip-path="url(#clip1)"><g clip-path="url(#clip2)"><g clip-path="url(#clip3)"><path d="M100.52 91.2134C100.528 105.917 88.6159 117.843 73.9124 117.852 59.2089 117.861 47.2823 105.948 47.2736 91.245 47.2649 76.5415 59.1773 64.6149 73.8808 64.6062 73.8913 64.6062 73.9019 64.6062 73.9124 64.6062" stroke="#000000" stroke-width="9.48" stroke-linecap="round" stroke-linejoin="round" fill="none" transform="matrix(1 0 -0 1.0443 216 268)"/><path d="M100.52 73.5964 90.3286 89.9178 110.695 89.9178 100.52 73.5964Z" stroke="#000000" stroke-width="9.48" stroke-linecap="round" stroke-linejoin="round" fill="none" transform="matrix(1 0 -0 1.0443 216 268)"/><path d="M38.2676 131.456 38.2676 131.456C15.7717 108.971 15.7633 72.5059 38.2488 50.01 38.255 50.0037 38.2613 49.9975 38.2676 49.9912L79 9.2588 119.732 49.9912C142.228 72.4767 142.237 108.941 119.751 131.437 119.745 131.443 119.739 131.45 119.732 131.456L119.732 131.456C97.2469 153.952 60.7823 153.96 38.2864 131.475 38.2802 131.469 38.2739 131.462 38.2676 131.456Z" stroke="#000000" stroke-width="9.48" stroke-linecap="round" stroke-linejoin="round" fill="none" transform="matrix(1 0 -0 1.0443 216 268)"/></g></g></g><text font-family="Arial,Arial_MSFontService,sans-serif" font-weight="700" font-size="128" transform="translate(384 397)">BUSSEboard</text></g></svg>