<svg width="1281" height="302" xmlns="http://www.w3.org/2000/svg" xmlns:xlink="http://www.w3.org/1999/xlink" overflow="hidden"><defs><clipPath id="clip0"><path d="M74 106 1355 106 1355 408 74 408Z" fill-rule="evenodd" clip-rule="evenodd"/></clipPath><clipPath id="clip1"><path d="M75 107 1355 107 1355 408 75 408Z" fill-rule="evenodd" clip-rule="evenodd"/></clipPath><clipPath id="clip2"><path d="M75 107 1356 107 1356 408 75 408Z" fill-rule="evenodd" clip-rule="evenodd"/></clipPath><clipPath id="clip3"><path d="M75 106 1356 106 1356 452 75 452Z" fill-rule="evenodd" clip-rule="evenodd"/></clipPath><clipPath id="clip4"><path d="M75 106 1356 106 1356 452 75 452Z" fill-rule="evenodd" clip-rule="evenodd"/></clipPath><clipPath id="clip5"><path d="M75 147 293 147 293 364 75 364Z" fill-rule="evenodd" clip-rule="evenodd"/></clipPath><clipPath id="clip6"><path d="M75 147 293 147 293 364 75 364Z" fill-rule="evenodd" clip-rule="evenodd"/></clipPath><clipPath id="clip7"><path d="M75 147 293 147 293 364 75 364Z" fill-rule="evenodd" clip-rule="evenodd"/></clipPath><clipPath id="clip8"><path d="M75 147 293 147 293 364 75 364Z" fill-rule="evenodd" clip-rule="evenodd"/></clipPath></defs><g clip-path="url(#clip0)" transform="translate(-74 -106)"><g clip-path="url(#clip1)"><g clip-path="url(#clip2)"><g clip-path="url(#clip3)"><g clip-path="url(#clip4)"><text fill="#FFFFFF" font-family="Aharoni,Aharoni_MSFontService,sans-serif" font-weight="700" font-size="173" transform="matrix(0.939794 0 0 0.940654 301.362 303)">BUSSEboard</text><g clip-path="url(#clip5)"><g clip-path="url(#clip6)"><g clip-path="url(#clip7)"><g clip-path="url(#clip8)"><path d="M51.63 590.25 51.63 563.231 78.649 563.231" stroke="#FFFFFF" stroke-width="13.5095" stroke-linecap="round" stroke-linejoin="round" stroke-miterlimit="10" fill="none" transform="matrix(1 0 -0 1.00091 58.0837 -260.799)"/><path d="M211.394 495.676C212.934 502.181 213.745 508.969 213.745 515.947 213.745 564.446 174.431 603.76 125.932 603.76 94.8469 603.76 67.5375 587.608 51.9339 563.244" stroke="#FFFFFF" stroke-width="13.5095" stroke-linecap="round" stroke-linejoin="round" stroke-miterlimit="10" fill="none" transform="matrix(1 0 -0 1.00091 58.0837 -260.799)"/><path d="M200.235 441.645 200.235 468.664 173.216 468.664" stroke="#FFFFFF" stroke-width="13.5095" stroke-linecap="round" stroke-linejoin="round" stroke-miterlimit="10" fill="none" transform="matrix(1 0 -0 1.00091 58.0837 -260.799)"/><path d="M40.4778 536.245C38.9378 529.726 38.1204 522.932 38.1204 515.947 38.1204 467.448 77.4332 428.136 125.932 428.136 157.025 428.136 184.341 444.293 199.944 468.671" stroke="#FFFFFF" stroke-width="13.5095" stroke-linecap="round" stroke-linejoin="round" stroke-miterlimit="10" fill="none" transform="matrix(1 0 -0 1.00091 58.0837 -260.799)"/><path d="M125.932 563.231C148.317 563.231 166.461 545.634 166.461 523.932 166.461 489.34 125.932 455.155 125.932 455.155 125.932 455.155 85.4038 489.34 85.4038 523.932 85.4038 545.634 103.547 563.231 125.932 563.231Z" stroke="#FFFFFF" stroke-width="13.5095" stroke-linecap="round" stroke-linejoin="round" stroke-miterlimit="10" fill="none" transform="matrix(1 0 -0 1.00091 58.0837 -260.799)"/><path d="M135.308 509.179C137.842 514.305 139.442 519.378 139.442 523.932 139.442 525.917 138.922 527.795 137.997 529.463" stroke="#FFFFFF" stroke-width="13.5095" stroke-linecap="round" stroke-linejoin="round" stroke-miterlimit="10" fill="none" transform="matrix(1 0 -0 1.00091 58.0837 -260.799)"/></g></g></g></g></g></g></g></g></g></svg>