<svg width="1187" height="324" xmlns="http://www.w3.org/2000/svg" xmlns:xlink="http://www.w3.org/1999/xlink" overflow="hidden"><defs><clipPath id="clip0"><path d="M132 105 1319 105 1319 429 132 429Z" fill-rule="evenodd" clip-rule="evenodd"/></clipPath><clipPath id="clip1"><path d="M133 147 317 147 317 331 133 331Z" fill-rule="evenodd" clip-rule="evenodd"/></clipPath><clipPath id="clip2"><path d="M133 147 317 147 317 331 133 331Z" fill-rule="evenodd" clip-rule="evenodd"/></clipPath><clipPath id="clip3"><path d="M133 147 317 147 317 331 133 331Z" fill-rule="evenodd" clip-rule="evenodd"/></clipPath><clipPath id="clip4"><path d="M133 147 317 147 317 331 133 331Z" fill-rule="evenodd" clip-rule="evenodd"/></clipPath></defs><g clip-path="url(#clip0)" transform="translate(-132 -105)"><text fill="#FFFFFF" font-family="Aharoni,Aharoni_MSFontService,sans-serif" font-weight="700" font-size="153" transform="translate(326.738 289)">BUSSEboard</text><g clip-path="url(#clip1)"><g clip-path="url(#clip2)"><g clip-path="url(#clip3)"><g clip-path="url(#clip4)"><path d="M161.75 302.25 161.75 279.25 184.75 279.25" stroke="#FFFFFF" stroke-width="11.5" stroke-linecap="round" stroke-linejoin="round" stroke-miterlimit="10" fill="none"/><path d="M297.749 221.744C299.06 227.281 299.75 233.06 299.75 239 299.75 280.285 266.285 313.75 225 313.75 198.538 313.75 175.291 300.002 162.009 279.262" stroke="#FFFFFF" stroke-width="11.5" stroke-linecap="round" stroke-linejoin="round" stroke-miterlimit="10" fill="none"/><path d="M288.25 175.75 288.25 198.75 265.25 198.75" stroke="#FFFFFF" stroke-width="11.5" stroke-linecap="round" stroke-linejoin="round" stroke-miterlimit="10" fill="none"/><path d="M152.257 256.279C150.946 250.73 150.25 244.945 150.25 239 150.25 197.715 183.715 164.25 225 164.25 251.467 164.25 274.72 178.004 288.003 198.756" stroke="#FFFFFF" stroke-width="11.5" stroke-linecap="round" stroke-linejoin="round" stroke-miterlimit="10" fill="none"/><path d="M225 279.25C244.055 279.25 259.5 264.271 259.5 245.796 259.5 216.351 225 187.25 225 187.25 225 187.25 190.5 216.351 190.5 245.796 190.5 264.271 205.944 279.25 225 279.25Z" stroke="#FFFFFF" stroke-width="11.5" stroke-linecap="round" stroke-linejoin="round" stroke-miterlimit="10" fill="none"/><path d="M232.981 233.238C235.137 237.603 236.5 241.921 236.5 245.796 236.5 247.487 236.057 249.085 235.27 250.506" stroke="#FFFFFF" stroke-width="11.5" stroke-linecap="round" stroke-linejoin="round" stroke-miterlimit="10" fill="none"/></g></g></g></g></g></svg>