<svg width="1114" height="187" xmlns="http://www.w3.org/2000/svg" xmlns:xlink="http://www.w3.org/1999/xlink" overflow="hidden"><defs><clipPath id="clip0"><path d="M106 413 1220 413 1220 600 106 600Z" fill-rule="evenodd" clip-rule="evenodd"/></clipPath><clipPath id="clip1"><path d="M107 414 1219 414 1219 600 107 600Z" fill-rule="evenodd" clip-rule="evenodd"/></clipPath><clipPath id="clip2"><path d="M107 414 1204 414 1204 600 107 600Z" fill-rule="evenodd" clip-rule="evenodd"/></clipPath><clipPath id="clip3"><path d="M107 414 1204 414 1204 600 107 600Z" fill-rule="evenodd" clip-rule="evenodd"/></clipPath><clipPath id="clip4"><path d="M107 414 1204 414 1204 600 107 600Z" fill-rule="evenodd" clip-rule="evenodd"/></clipPath><clipPath id="clip5"><path d="M107 415 1203 415 1203 599 107 599Z" fill-rule="evenodd" clip-rule="evenodd"/></clipPath><clipPath id="clip6"><path d="M107 415 1203 415 1203 599 107 599Z" fill-rule="evenodd" clip-rule="evenodd"/></clipPath><clipPath id="clip7"><path d="M107 416 293 416 293 601 107 601Z" fill-rule="evenodd" clip-rule="evenodd"/></clipPath><clipPath id="clip8"><path d="M107 416 293 416 293 601 107 601Z" fill-rule="evenodd" clip-rule="evenodd"/></clipPath><clipPath id="clip9"><path d="M107 416 293 416 293 601 107 601Z" fill-rule="evenodd" clip-rule="evenodd"/></clipPath><clipPath id="clip10"><path d="M107 416 293 416 293 601 107 601Z" fill-rule="evenodd" clip-rule="evenodd"/></clipPath></defs><g clip-path="url(#clip0)" transform="translate(-106 -413)"><g clip-path="url(#clip1)"><g clip-path="url(#clip2)"><g clip-path="url(#clip3)"><g clip-path="url(#clip4)"><g clip-path="url(#clip5)"><g clip-path="url(#clip6)"><text fill="#FFFFFF" font-family="Aharoni,Aharoni_MSFontService,sans-serif" font-weight="700" font-size="153" transform="matrix(0.999912 0 0 0.999509 301.721 558)">BUSSEboard</text><g clip-path="url(#clip7)"><g clip-path="url(#clip8)"><g clip-path="url(#clip9)"><g clip-path="url(#clip10)"><path d="M161.671 302.102 161.671 279.113 184.659 279.113" stroke="#FFFFFF" stroke-width="11.4944" stroke-linecap="round" stroke-linejoin="round" stroke-miterlimit="10" fill="none" transform="matrix(1.0004 0 -0 1 -24.9882 269.533)"/><path d="M297.603 221.635C298.913 227.169 299.603 232.946 299.603 238.883 299.603 280.147 266.154 313.596 224.89 313.596 198.441 313.596 175.205 299.855 161.93 279.125" stroke="#FFFFFF" stroke-width="11.4944" stroke-linecap="round" stroke-linejoin="round" stroke-miterlimit="10" fill="none" transform="matrix(1.0004 0 -0 1 -24.9882 269.533)"/><path d="M288.109 175.664 288.109 198.652 265.12 198.652" stroke="#FFFFFF" stroke-width="11.4944" stroke-linecap="round" stroke-linejoin="round" stroke-miterlimit="10" fill="none" transform="matrix(1.0004 0 -0 1 -24.9882 269.533)"/><path d="M152.182 256.153C150.872 250.607 150.176 244.825 150.176 238.883 150.176 197.618 183.625 164.169 224.89 164.169 251.344 164.169 274.585 177.917 287.862 198.658" stroke="#FFFFFF" stroke-width="11.4944" stroke-linecap="round" stroke-linejoin="round" stroke-miterlimit="10" fill="none" transform="matrix(1.0004 0 -0 1 -24.9882 269.533)"/><path d="M224.89 279.113C243.935 279.113 259.373 264.141 259.373 245.675 259.373 216.245 224.89 187.158 224.89 187.158 224.89 187.158 190.407 216.245 190.407 245.675 190.407 264.141 205.843 279.113 224.89 279.113Z" stroke="#FFFFFF" stroke-width="11.4944" stroke-linecap="round" stroke-linejoin="round" stroke-miterlimit="10" fill="none" transform="matrix(1.0004 0 -0 1 -24.9882 269.533)"/><path d="M232.867 233.124C235.022 237.486 236.384 241.802 236.384 245.675 236.384 247.366 235.941 248.963 235.155 250.383" stroke="#FFFFFF" stroke-width="11.4944" stroke-linecap="round" stroke-linejoin="round" stroke-miterlimit="10" fill="none" transform="matrix(1.0004 0 -0 1 -24.9882 269.533)"/></g></g></g></g></g></g></g></g></g></g></g></svg>