<svg xmlns="http://www.w3.org/2000/svg" xmlns:xlink="http://www.w3.org/1999/xlink" width="320pt" height="320pt" viewBox="0 0 320 320" version="1.1">
<g id="surface1">
<path style="fill:none;stroke-width:6;stroke-linecap:round;stroke-linejoin:round;stroke:rgb(0%,0%,0%);stroke-opacity:1;stroke-miterlimit:4;" d="M 63.620605 57.729492 C 63.625488 67.038574 56.081543 74.588623 46.773682 74.589844 C 37.4646 74.592285 29.918213 67.044678 29.919434 57.736816 C 29.921875 48.427734 37.471924 40.88501 46.779785 40.889893 " transform="matrix(3.2,0,0,3.2,0,0)"/>
<path style="fill:none;stroke-width:6;stroke-linecap:round;stroke-linejoin:round;stroke:rgb(0%,0%,0%);stroke-opacity:1;stroke-miterlimit:4;" d="M 63.620605 46.57959 L 57.17041 56.9104 L 70.059814 56.9104 Z M 63.620605 46.57959 " transform="matrix(3.2,0,0,3.2,0,0)"/>
<path style="fill:none;stroke-width:6;stroke-linecap:round;stroke-linejoin:round;stroke:rgb(0%,0%,0%);stroke-opacity:1;stroke-miterlimit:4;" d="M 24.219971 83.199463 C 9.978027 68.963623 9.978027 45.876465 24.219971 31.639404 L 50 5.860596 L 75.780029 31.639404 C 90.021973 45.876465 90.021973 68.963623 75.780029 83.199463 C 61.544189 97.442627 38.455811 97.442627 24.219971 83.199463 Z M 24.219971 83.199463 " transform="matrix(3.2,0,0,3.2,0,0)"/>
</g>
</svg>
