<!DOCTYPE svg PUBLIC "-//W3C//DTD SVG 20010904//EN"
 "http://www.w3.org/TR/2001/REC-SVG-20010904/DTD/svg10.dtd">
<svg version="1.0" xmlns="http://www.w3.org/2000/svg"
 width="243.000000pt" height="320.000000pt" viewBox="0 0 243.000000 320.000000"
 preserveAspectRatio="xMidYMid meet">

<g transform="translate(0.000000,320.000000) scale(0.100000,-0.100000)"
fill="#000000" stroke="none">
<path d="M1141 3162 c-159 -166 -555 -681 -723 -942 -214 -332 -343 -596 -398
-811 -15 -58 -20 -111 -20 -214 0 -320 114 -597 340 -827 182 -185 382 -292
638 -343 258 -52 504 -19 760 102 118 55 288 186 380 293 246 284 351 693 262
1020 -22 80 -90 246 -154 372 -178 351 -473 773 -884 1263 -46 55 -91 106
-100 113 -29 22 -63 14 -101 -26z m189 -1047 c16 -16 49 -60 71 -98 l42 -70
21 44 c22 46 44 57 92 45 42 -11 46 -44 18 -157 -50 -201 -52 -203 -226 -157
-129 34 -158 52 -158 98 0 42 31 63 84 58 26 -2 46 -2 46 0 0 2 -17 32 -37 68
-29 50 -42 64 -58 62 -13 -2 -45 -47 -103 -148 -204 -353 -217 -375 -244 -390
-25 -13 -31 -13 -55 0 -15 9 -32 28 -37 42 -8 24 5 53 124 260 220 385 218
382 327 376 53 -3 67 -8 93 -33z m287 -482 c17 -15 245 -407 298 -512 27 -54
17 -142 -21 -182 -43 -46 -82 -59 -179 -59 -85 0 -99 -6 -69 -31 56 -46 11
-145 -56 -124 -9 3 -61 50 -114 105 -89 90 -98 102 -92 127 8 30 178 209 208
219 9 3 31 -2 48 -11 25 -13 30 -21 30 -54 0 -25 -7 -44 -20 -56 -11 -10 -20
-22 -20 -27 0 -4 36 -8 80 -8 61 0 82 4 86 14 3 8 -53 115 -124 238 -171 294
-174 301 -162 332 17 45 72 60 107 29z m-823 -216 c10 -8 31 -57 48 -118 43
-148 45 -165 17 -195 -39 -41 -91 -27 -116 34 l-15 36 -34 -55 c-62 -98 -74
-93 269 -99 l299 -5 19 -24 c10 -13 19 -29 19 -37 0 -27 -23 -62 -44 -68 -11
-3 -151 -6 -311 -6 -337 0 -353 4 -399 82 -39 66 -35 115 14 200 22 39 40 72
40 75 0 3 -17 2 -38 -2 -68 -11 -119 57 -79 107 6 9 53 29 102 43 50 15 101
31 115 35 38 13 74 11 94 -3z"/>
</g>
</svg>
