<!DOCTYPE svg PUBLIC "-//W3C//DTD SVG 20010904//EN"
 "http://www.w3.org/TR/2001/REC-SVG-20010904/DTD/svg10.dtd">
<svg version="1.0" xmlns="http://www.w3.org/2000/svg"
 width="420.000000pt" height="124.000000pt" viewBox="0 0 420.000000 124.000000"
 preserveAspectRatio="xMidYMid meet">

<g transform="translate(0.000000,124.000000) scale(0.100000,-0.100000)"
fill="#000000" stroke="none">
<path d="M211 1028 c-71 -95 -132 -189 -160 -248 -43 -89 -46 -99 -45 -175 1
-98 30 -169 95 -232 69 -66 147 -97 244 -98 71 0 88 4 147 33 127 62 192 167
193 308 0 65 -4 79 -47 165 -72 142 -256 392 -293 397 -15 2 -47 -34 -134
-150z m179 -168 c17 -18 30 -25 32 -18 2 6 12 9 21 5 13 -5 16 -13 11 -34 -14
-57 -20 -62 -61 -51 -51 13 -63 26 -39 43 17 13 15 35 -4 35 -5 0 -28 -34 -51
-75 -40 -70 -69 -95 -69 -60 0 23 79 163 98 175 26 14 32 12 62 -20z m118
-200 c23 -44 42 -86 42 -94 0 -22 -29 -46 -55 -46 -17 0 -23 -4 -19 -14 11
-28 -18 -28 -47 0 -35 33 -36 41 -7 71 28 30 62 32 53 3 -5 -16 -2 -20 14 -20
12 0 21 3 21 7 0 3 -18 39 -40 80 -23 40 -38 78 -35 83 14 23 32 5 73 -70z
m-269 -11 c6 -18 11 -40 11 -50 0 -21 -25 -26 -36 -8 -4 8 -9 7 -15 -2 -16
-26 -9 -29 82 -29 81 0 90 -2 87 -17 -5 -25 -159 -32 -194 -8 -24 16 -32 49
-14 60 16 10 11 22 -11 28 -31 8 -18 30 27 44 21 6 42 12 46 12 3 1 11 -13 17
-30z"/>
<path d="M2540 690 l0 -200 25 0 c15 0 25 6 25 14 0 13 4 13 28 0 37 -19 98
-18 133 3 42 25 73 94 65 145 -9 57 -32 95 -66 113 -42 22 -102 19 -134 -6
l-26 -20 0 75 c0 74 -1 76 -25 76 l-25 0 0 -200z m174 39 c14 -7 32 -27 41
-46 40 -83 -29 -170 -112 -142 -41 13 -53 34 -53 94 0 38 5 52 29 76 32 31 55
36 95 18z"/>
<path d="M3847 883 c-4 -3 -7 -35 -7 -70 l0 -64 -22 15 c-13 9 -43 16 -69 16
-52 0 -90 -23 -114 -70 -19 -38 -19 -113 0 -151 32 -61 121 -87 184 -54 26 13
30 13 41 0 7 -8 20 -15 29 -15 14 0 16 19 13 188 -2 103 -5 193 -7 200 -5 13
-37 17 -48 5z m-48 -158 c35 -18 41 -32 41 -99 0 -74 -41 -107 -106 -86 -79
26 -87 145 -13 186 31 17 44 17 78 -1z"/>
<path d="M840 685 l0 -195 100 0 c150 0 190 23 190 109 0 27 -7 48 -25 69 -21
25 -23 31 -11 42 22 17 29 66 16 105 -17 52 -50 65 -170 65 l-100 0 0 -195z
m212 128 c24 -21 23 -58 -2 -83 -16 -16 -33 -20 -90 -20 l-70 0 0 60 0 60 72
0 c52 0 76 -4 90 -17z m12 -169 c9 -8 16 -28 16 -44 0 -48 -22 -60 -111 -60
l-79 0 0 60 0 60 79 0 c59 0 84 -4 95 -16z"/>
<path d="M1187 873 c-11 -10 -8 -214 4 -256 12 -46 58 -100 99 -117 40 -17
125 -8 158 17 52 39 65 83 66 227 l1 131 -25 0 -25 0 -5 -135 c-3 -74 -9 -143
-14 -152 -21 -46 -109 -64 -155 -32 -40 28 -51 73 -51 204 0 119 0 120 -23
120 -13 0 -27 -3 -30 -7z"/>
<path d="M1635 861 c-87 -39 -87 -139 1 -181 24 -11 47 -20 51 -20 23 0 84
-23 98 -36 19 -20 19 -48 -1 -68 -23 -24 -108 -21 -162 5 -37 18 -46 19 -53 8
-13 -22 -6 -32 36 -53 116 -58 255 -14 255 80 0 54 -33 81 -135 112 -86 27
-90 29 -93 59 -6 59 75 83 151 44 37 -19 37 -19 48 1 12 23 7 29 -48 54 -44
19 -100 17 -148 -5z"/>
<path d="M1955 862 c-41 -26 -55 -44 -61 -84 -9 -51 31 -93 104 -113 100 -28
122 -41 122 -74 0 -41 -28 -54 -101 -49 -40 3 -69 11 -89 26 l-29 22 -12 -22
c-10 -18 -8 -24 12 -39 51 -39 152 -51 215 -24 70 29 79 129 17 171 -15 9 -59
25 -97 35 -75 19 -100 40 -90 73 10 33 19 39 71 43 35 3 58 -1 86 -15 36 -19
38 -19 47 -2 28 53 -126 94 -195 52z"/>
<path d="M2227 874 c-4 -4 -7 -92 -7 -196 l0 -189 138 3 c129 3 137 4 137 23
0 19 -8 20 -107 23 l-108 3 0 59 0 60 90 0 c89 0 90 0 90 25 0 25 -1 25 -90
25 l-90 0 0 60 0 60 106 0 c104 0 105 0 102 23 -3 21 -7 22 -129 25 -69 1
-128 -1 -132 -4z"/>
<path d="M2918 765 c-63 -35 -90 -134 -54 -203 49 -95 202 -96 251 -1 36 69
11 163 -53 202 -36 21 -107 22 -144 2z m121 -51 c82 -69 16 -213 -79 -174 -72
30 -79 148 -11 185 37 20 55 18 90 -11z"/>
<path d="M3203 762 c-26 -14 -30 -20 -22 -34 9 -16 13 -17 39 -3 63 32 130 10
130 -44 0 -20 -5 -22 -37 -20 -70 4 -91 -1 -122 -27 -24 -20 -31 -34 -31 -60
0 -72 79 -106 163 -70 28 11 34 11 46 -1 7 -8 20 -13 29 -11 19 4 30 48 13 48
-7 0 -11 33 -11 91 0 87 -1 92 -29 120 -25 25 -37 29 -83 29 -30 -1 -67 -8
-85 -18z m116 -138 c26 -5 31 -11 31 -35 0 -33 -39 -59 -88 -59 -56 0 -71 62
-22 87 29 15 36 15 79 7z"/>
<path d="M3460 634 l0 -145 28 3 27 3 5 98 c4 89 7 101 29 118 13 10 34 19 47
19 19 0 24 5 24 25 0 30 -25 33 -70 10 -25 -13 -29 -13 -34 0 -3 8 -17 15 -31
15 l-25 0 0 -146z"/>
</g>
</svg>
