<?xml version="1.0" standalone="no"?>
<!DOCTYPE svg PUBLIC "-//W3C//DTD SVG 20010904//EN"
 "http://www.w3.org/TR/2001/REC-SVG-20010904/DTD/svg10.dtd">
<svg version="1.0" xmlns="http://www.w3.org/2000/svg"
 width="200.000000pt" height="200.000000pt" viewBox="0 0 200.000000 200.000000"
 preserveAspectRatio="xMidYMid meet">

<g transform="translate(0.000000,200.000000) scale(0.100000,-0.100000)"
fill="#000000" stroke="none">
<path d="M227 1178 c-57 -70 -106 -154 -119 -201 -31 -117 89 -232 207 -197
115 34 156 147 95 259 -40 72 -122 180 -137 181 -6 0 -27 -19 -46 -42z m69
-112 c3 -8 12 -12 21 -9 12 5 14 1 9 -15 -5 -14 3 -36 23 -68 29 -47 31 -74 6
-74 -7 0 -15 -6 -18 -12 -3 -10 -10 -8 -23 5 -17 16 -17 18 -1 35 16 15 19 15
28 2 12 -17 11 -12 -11 43 -9 24 -22 40 -37 43 -23 6 -32 24 -12 24 5 0 7 5 3
11 -4 8 -16 -4 -32 -30 -13 -22 -28 -41 -33 -41 -13 0 -12 4 13 47 31 54 53
67 64 39z m-73 -115 c3 -13 -1 -21 -12 -24 -9 -3 3 -5 27 -6 60 -1 53 -21 -8
-21 -43 0 -50 3 -50 19 0 11 -3 26 -6 35 -5 12 0 16 19 16 16 0 26 -7 30 -19z"/>
<path d="M1250 976 l0 -134 42 0 c61 -1 68 9 68 99 0 84 -13 112 -50 102 -17
-5 -20 -1 -20 31 0 29 -4 36 -20 36 -19 0 -20 -7 -20 -134z m74 22 c8 -30 8
-92 0 -112 -3 -9 -12 -16 -20 -16 -11 0 -14 17 -14 68 0 38 3 72 7 75 12 12
21 7 27 -15z"/>
<path d="M1860 1076 c0 -29 -3 -33 -26 -33 -37 0 -44 -17 -44 -104 0 -88 7
-98 68 -97 l42 0 0 134 c0 127 -1 134 -20 134 -16 0 -20 -7 -20 -34z m-2 -134
c2 -57 0 -72 -11 -72 -19 0 -30 60 -22 112 11 63 30 40 33 -40z"/>
<path d="M530 965 l0 -125 40 0 c67 0 104 64 66 115 -12 16 -12 22 1 41 17 27
8 71 -17 84 -10 6 -35 10 -54 10 l-36 0 0 -125z m74 79 c11 -27 7 -43 -14 -54
-18 -10 -20 -8 -20 30 0 41 21 57 34 24z m-5 -98 c18 -21 10 -70 -11 -74 -15
-3 -18 4 -18 42 0 47 9 57 29 32z"/>
<path d="M680 993 c0 -116 12 -147 56 -151 55 -5 64 15 64 139 0 102 -1 109
-20 109 -19 0 -20 -7 -20 -111 0 -100 -2 -110 -17 -107 -16 3 -18 18 -21 111
-2 99 -4 107 -22 107 -19 0 -20 -7 -20 -97z"/>
<path d="M852 1078 c-21 -21 -14 -71 16 -108 42 -51 56 -80 44 -92 -16 -16
-42 -2 -42 22 0 11 -7 20 -15 20 -18 0 -21 -50 -3 -68 7 -7 26 -12 43 -12 68
0 75 60 15 140 -42 57 -46 75 -14 75 12 0 20 -8 22 -22 2 -13 10 -23 18 -23
17 0 19 51 2 68 -16 16 -70 16 -86 0z"/>
<path d="M992 1078 c-23 -23 -13 -65 28 -119 43 -57 48 -84 15 -84 -13 0 -21
8 -23 23 -5 33 -32 28 -32 -6 0 -37 17 -52 57 -52 24 0 37 7 49 25 20 30 12
57 -32 112 -37 46 -46 87 -16 81 9 -2 18 -13 20 -26 2 -12 10 -22 18 -22 17 0
19 51 2 68 -16 16 -70 16 -86 0z"/>
<path d="M1130 965 l0 -125 45 0 c33 0 45 4 45 15 0 9 -9 15 -25 15 -23 0 -25
4 -25 45 0 38 3 45 20 45 11 0 20 7 20 15 0 8 -9 15 -20 15 -16 0 -20 7 -20
35 0 31 3 35 25 35 16 0 25 6 25 15 0 11 -12 15 -45 15 l-45 0 0 -125z"/>
<path d="M1429 1043 c-23 -6 -39 -47 -39 -101 0 -64 18 -96 55 -100 42 -5 55
19 55 104 0 64 -3 75 -22 88 -12 9 -25 15 -28 15 -3 -1 -12 -3 -21 -6z m36
-46 c4 -13 5 -45 3 -73 -2 -37 -7 -50 -20 -52 -16 -3 -18 5 -18 66 0 38 3 72
7 75 12 13 23 7 28 -16z"/>
<path d="M1559 1036 c-27 -13 -39 -56 -15 -56 8 0 18 9 21 21 9 26 29 19 32
-12 2 -18 -6 -29 -30 -44 -27 -18 -32 -26 -32 -60 l0 -40 53 -1 52 -2 0 82 c0
83 -9 108 -41 119 -9 3 -27 0 -40 -7z m41 -131 c0 -24 -5 -35 -14 -35 -24 0
-29 19 -12 45 22 33 26 31 26 -10z"/>
<path d="M1725 1040 c-4 -6 -15 -8 -26 -5 -18 6 -19 0 -19 -94 0 -83 3 -101
15 -101 12 0 15 16 15 84 0 81 15 123 27 77 8 -29 33 -27 33 4 0 27 -34 53
-45 35z"/>
</g>
</svg>
